<?xml version="1.0" encoding="utf-8"?>
<!-- Generator: Adobe Illustrator 18.0.0, SVG Export Plug-In . SVG Version: 6.00 Build 0)  -->
<!DOCTYPE svg PUBLIC "-//W3C//DTD SVG 1.1//EN" "http://www.w3.org/Graphics/SVG/1.1/DTD/svg11.dtd">
<svg version="1.1" xmlns="http://www.w3.org/2000/svg" xmlns:xlink="http://www.w3.org/1999/xlink" x="0px" y="0px" width="405px"
	 height="515.7px" viewBox="0 0 405 515.7" enable-background="new 0 0 405 515.7" xml:space="preserve">
<g id="Layer_1">
</g>
<g id="floors">
	<polygon id="f4a" fill="none" stroke="#00B1FF" stroke-width="3" stroke-miterlimit="10" points="264.7,172.2 196.5,172.2 
		196.5,154.2 159.5,154.2 159.5,15.2 146.9,2.2 131,18.3 114.9,2.2 98.8,18.3 82.6,2.2 66.4,18.3 49.4,2.2 36.5,14.1 36.5,154.2 
		1.5,154.2 1.5,338.2 197.3,338.2 201.5,338.2 201.5,514.2 403.5,514.2 403.5,172.2 	"/>
</g>
<g id="sections">
	<rect id="s1" x="201.5" y="385.2" fill="#F7F8F9" stroke="#00B1FF" stroke-miterlimit="10" width="91" height="129"/>
	<polygon id="s2" fill="#F7F8F9" stroke="#00B1FF" stroke-miterlimit="10" points="292.5,373.7 292.5,514.2 403.5,514.2 
		403.5,434.7 382,434.7 382,373.7 	"/>
	<polygon id="s3" fill="#F7F8F9" stroke="#00B1FF" stroke-miterlimit="10" points="201.5,385.2 201.5,338.2 211.7,320.3 
		403.5,320.3 403.5,434.7 382,434.7 382,373.7 292.5,373.7 292.5,385.2 	"/>
	<polygon id="s4" fill="#F7F8F9" stroke="#00B1FF" stroke-miterlimit="10" points="292.5,172.3 292.5,320.3 403.5,320.3 
		403.5,172.2 	"/>
	<rect id="s5" x="211.7" y="172.2" fill="#F7F8F9" stroke="#00B1FF" stroke-miterlimit="10" width="80.8" height="148.2"/>
	<polygon id="s6" fill="#F7F8F9" stroke="#00B1FF" stroke-miterlimit="10" points="30.3,338.2 30.3,264.7 211.7,264.7 211.7,320.3 
		201.5,338.2 	"/>
	<polygon id="s7" fill="#F7F8F9" stroke="#00B1FF" stroke-miterlimit="10" points="1.5,338.2 1.5,154.6 78.3,154.6 78.3,264.7 
		30.3,264.7 30.3,338.2 	"/>
	<polygon id="s8" fill="#F7F8F9" stroke="#00B1FF" stroke-miterlimit="10" points="78.3,154.6 196.5,154.6 196.5,172.2 211.7,172.2 
		211.7,264.7 78.3,264.7 	"/>
	<rect id="s9" x="36.5" y="40" fill="#F7F8F9" stroke="#00B1FF" stroke-miterlimit="10" width="123" height="114.2"/>
</g>
<g id="booths">
	<g id="sec9" opacity="0.4">
		<rect id="bsky10" x="36.5" y="40" fill="#FFFFFF" stroke="#6E7E84" stroke-miterlimit="10" width="21.8" height="36.4"/>
		<rect id="bsky2" x="36.5" y="76.4" fill="#FFFFFF" stroke="#6E7E84" stroke-miterlimit="10" width="21.8" height="78.2"/>
		<rect id="bsky7" x="137.8" y="118.2" fill="#FFFFFF" stroke="#6E7E84" stroke-miterlimit="10" width="21.8" height="36.4"/>
		<rect id="bsky3" x="137.8" y="40" fill="#FFFFFF" stroke="#6E7E84" stroke-miterlimit="10" width="21.8" height="78.2"/>
		<rect id="bsky1" x="66.2" y="49.4" fill="#FFFFFF" stroke="#6E7E84" stroke-miterlimit="10" width="63.8" height="27"/>
		<rect id="bsky5" x="66.2" y="84.7" fill="#FFFFFF" stroke="#6E7E84" stroke-miterlimit="10" width="63.8" height="31.1"/>
		<rect id="bsky9" x="66.2" y="123.5" fill="#FFFFFF" stroke="#6E7E84" stroke-miterlimit="10" width="63.8" height="31.1"/>
	</g>
	<g id="sec7" opacity="0.4">
		<rect id="b3002" x="1.5" y="154.2" fill="#FFFFFF" stroke="#6E7E84" stroke-miterlimit="10" width="21.5" height="20.8"/>
		<rect id="b3020" x="1.5" y="311.4" fill="#FFFFFF" stroke="#6E7E84" stroke-miterlimit="10" width="21.5" height="17.8"/>
		<rect id="b3004" x="1.5" y="205.7" fill="#FFFFFF" stroke="#6E7E84" stroke-miterlimit="10" width="21.5" height="46.5"/>
		<rect id="b3010" x="1.5" y="252.2" fill="#FFFFFF" stroke="#6E7E84" stroke-miterlimit="10" width="21.5" height="52.2"/>
		<rect id="b3003" x="37.5" y="174.9" fill="#FFFFFF" stroke="#6E7E84" stroke-miterlimit="10" width="37" height="83.8"/>
	</g>
	<g id="sec5" opacity="0.4">
		<rect id="b3417" x="214.6" y="174.9" fill="#FFFFFF" stroke="#6E7E84" stroke-miterlimit="10" width="74" height="38"/>
		<rect id="b3403" x="214.6" y="220.7" fill="#FFFFFF" stroke="#6E7E84" stroke-miterlimit="10" width="74" height="75.2"/>
		<rect id="b3411" x="214.6" y="295.7" fill="#FFFFFF" stroke="#6E7E84" stroke-miterlimit="10" width="74" height="20.5"/>
	</g>
	<g id="sec1" opacity="0.4">
		<rect id="b3342" x="214.6" y="389.4" fill="#FFFFFF" stroke="#6E7E84" stroke-miterlimit="10" width="74" height="38.7"/>
		<rect id="b3444" x="255.1" y="436.4" fill="#FFFFFF" stroke="#6E7E84" stroke-miterlimit="10" width="33.5" height="29.2"/>
		<rect id="b3344" x="214.6" y="436.4" fill="#FFFFFF" stroke="#6E7E84" stroke-miterlimit="10" width="33.5" height="68.5"/>
		<rect id="b3446" x="255.1" y="475.2" fill="#FFFFFF" stroke="#6E7E84" stroke-miterlimit="10" width="33.5" height="29.2"/>
	</g>
	<g id="sec3" opacity="0.4">
		<rect id="b3822" x="382" y="329.1" fill="#FFFFFF" stroke="#6E7E84" stroke-miterlimit="10" width="21.5" height="44.6"/>
		<rect id="b3330" x="214.6" y="324.6" fill="#FFFFFF" stroke="#6E7E84" stroke-miterlimit="10" width="74" height="56"/>
		<rect id="b3625" x="295.9" y="324.6" fill="#FFFFFF" stroke="#6E7E84" stroke-miterlimit="10" width="74" height="41.8"/>
		<rect id="b3828" x="382" y="373.7" fill="#FFFFFF" stroke="#6E7E84" stroke-miterlimit="10" width="21.5" height="32.7"/>
		<rect id="b3834" x="382" y="406.4" fill="#FFFFFF" stroke="#6E7E84" stroke-miterlimit="10" width="21.5" height="28.1"/>
	</g>
	<g id="sec2" opacity="0.4">
		<rect id="b3838" x="382" y="434.5" fill="#FFFFFF" stroke="#6E7E84" stroke-miterlimit="10" width="21.5" height="59.1"/>
		<rect id="b3630" x="295.9" y="373.7" fill="#FFFFFF" stroke="#6E7E84" stroke-miterlimit="10" width="74" height="77.5"/>
		<rect id="b3646" x="295.9" y="460.1" fill="#FFFFFF" stroke="#6E7E84" stroke-miterlimit="10" width="74" height="44.3"/>
	</g>
	<g id="sec4" opacity="0.4">
		<rect id="b3808" x="382" y="182.4" fill="#FFFFFF" stroke="#6E7E84" stroke-miterlimit="10" width="21.5" height="44.6"/>
		<rect id="b3810" x="382" y="227" fill="#FFFFFF" stroke="#6E7E84" stroke-miterlimit="10" width="21.5" height="44.6"/>
		<rect id="b3812" x="382" y="271.6" fill="#FFFFFF" stroke="#6E7E84" stroke-miterlimit="10" width="21.5" height="44.6"/>
		<rect id="b3617" x="295.9" y="237.9" fill="#FFFFFF" stroke="#6E7E84" stroke-miterlimit="10" width="74" height="78.3"/>
		<rect id="b3605" x="295.9" y="183.1" fill="#FFFFFF" stroke="#6E7E84" stroke-miterlimit="10" width="74" height="46.8"/>
	</g>
	<g id="sec8" opacity="0.4">
		<rect id="b3103" x="83" y="174.9" fill="#FFFFFF" stroke="#6E7E84" stroke-miterlimit="10" width="46.2" height="83.8"/>
		<rect id="b3203" x="136.4" y="174.9" fill="#FFFFFF" stroke="#6E7E84" stroke-miterlimit="10" width="67.2" height="38"/>
		<rect id="b3209" x="136.4" y="220.7" fill="#FFFFFF" stroke="#6E7E84" stroke-miterlimit="10" width="67.2" height="38"/>
	</g>
	<g id="sec6" opacity="0.4">
		<rect id="b3217" x="125.6" y="264.7" fill="#FFFFFF" stroke="#6E7E84" stroke-miterlimit="10" width="78" height="58.5"/>
		<rect id="b3117" x="83" y="264.7" fill="#FFFFFF" stroke="#6E7E84" stroke-miterlimit="10" width="34.8" height="58.5"/>
		<rect id="b3017" x="37.5" y="264.7" fill="#FFFFFF" stroke="#6E7E84" stroke-miterlimit="10" width="36.8" height="58.5"/>
	</g>
</g>
<g id="extra-locations">
	<g id="floor4a">
		<g id="pin_10_">
			<circle fill="#133E75" stroke="#F9F9F9" stroke-miterlimit="10" cx="148.2" cy="82.2" r="4.2"/>
			<rect x="146" y="80.5" fill="#F9F9F9" width="4.5" height="3.4"/>
		</g>
		<g id="pin_11_">
			<circle fill="#133E75" stroke="#F9F9F9" stroke-miterlimit="10" cx="12.2" cy="272.8" r="4.2"/>
			<rect x="10" y="271.1" fill="#F9F9F9" width="4.5" height="3.4"/>
		</g>
		<g id="pin_12_">
			<circle fill="#133E75" stroke="#F9F9F9" stroke-miterlimit="10" cx="55.9" cy="217.1" r="4.2"/>
			<rect x="53.6" y="215.4" fill="#F9F9F9" width="4.5" height="3.4"/>
		</g>
		<g id="pin_13_">
			<circle fill="#133E75" stroke="#F9F9F9" stroke-miterlimit="10" cx="271.9" cy="449.7" r="4.2"/>
			<rect x="269.6" y="448" fill="#F9F9F9" width="4.5" height="3.4"/>
		</g>
	</g>
</g>
<g id="labels" display="none">
</g>
</svg>
