<?xml version="1.0" encoding="utf-8"?>
<!-- Generator: Adobe Illustrator 18.0.0, SVG Export Plug-In . SVG Version: 6.00 Build 0)  -->
<!DOCTYPE svg PUBLIC "-//W3C//DTD SVG 1.1//EN" "http://www.w3.org/Graphics/SVG/1.1/DTD/svg11.dtd">
<svg version="1.1" xmlns="http://www.w3.org/2000/svg" xmlns:xlink="http://www.w3.org/1999/xlink" x="0px" y="0px" width="493px"
	 height="453px" viewBox="0 0 493 453" enable-background="new 0 0 493 453" xml:space="preserve">
<g id="Layer_1">
</g>
<g id="floors">
	<polygon id="f6" fill="none" stroke="#00B1FF" stroke-width="3" stroke-miterlimit="10" points="491.5,1.5 1.5,1.5 1.5,451.5 
		206.5,451.5 206.5,206.5 491.5,206.5 	"/>
</g>
<g id="sections">
	<polygon id="s33" fill="#F7F8F9" stroke="#00B1FF" stroke-miterlimit="10" points="174,217 174,203 101,203 101,344.2 180.2,344.2 
		180.2,368.8 190,368.8 190,372 206.5,372 206.5,217 	"/>
	<polygon id="s32" fill="#F7F8F9" stroke="#00B1FF" stroke-miterlimit="10" points="24,344.2 101,344.2 101,203 32,203 32,194.5 
		1.5,194.5 1.5,378 24,378 	"/>
	<polygon id="s31" fill="#F7F8F9" stroke="#00B1FF" stroke-miterlimit="10" points="61.2,414.3 61.2,377 159.2,377 159.2,414.3 
		190,414.3 190,372 190,368.8 180.2,368.8 180.2,344.2 24,344.2 24,378 38,378 38,414.3 	"/>
	<polygon id="s34" fill="#F7F8F9" stroke="#00B1FF" stroke-miterlimit="10" points="174,203 32,203 32,194.5 1.5,194.5 1.5,119.3 
		174,119.3 	"/>
	<polygon id="s35" fill="#F7F8F9" stroke="#00B1FF" stroke-miterlimit="10" points="174,217 174,133.7 310.3,133.7 310.3,206.5 
		206.5,206.5 206.5,217 	"/>
	<rect id="s36" x="310.3" y="133.7" fill="#F7F8F9" stroke="#00B1FF" stroke-miterlimit="10" width="76.3" height="72.8"/>
	<rect id="s37" x="386.7" y="133.7" fill="#F7F8F9" stroke="#00B1FF" stroke-miterlimit="10" width="77" height="72.8"/>
	<rect id="s38" x="463.7" y="81" fill="#F7F8F9" stroke="#00B1FF" stroke-miterlimit="10" width="27.8" height="125.5"/>
	<polygon id="s44" fill="#F7F8F9" stroke="#00B1FF" stroke-miterlimit="10" points="412,1.5 412,133.7 463.7,133.7 463.7,81 
		491.5,81 491.5,1.5 	"/>
	<rect id="s45" x="313" y="1.5" fill="#F7F8F9" stroke="#00B1FF" stroke-miterlimit="10" width="99" height="52.2"/>
	<rect id="s43" x="313" y="53.7" fill="#F7F8F9" stroke="#00B1FF" stroke-miterlimit="10" width="99" height="80"/>
	<polygon id="s42" fill="#F7F8F9" stroke="#00B1FF" stroke-miterlimit="10" points="174,133.7 174,53.7 258.7,53.7 258.7,1.5 
		313,1.5 313,133.7 	"/>
	<polygon id="s41" fill="#F7F8F9" stroke="#00B1FF" stroke-miterlimit="10" points="130.7,1.5 130.7,29.7 125.3,29.7 125.3,119.3 
		174,119.3 174,53.7 258.7,53.7 258.7,1.5 	"/>
	<polygon id="s40" fill="#F7F8F9" stroke="#00B1FF" stroke-miterlimit="10" points="74,1.5 74,119.3 125.3,119.3 125.3,29.7 
		130.7,29.7 130.7,1.5 	"/>
	<rect id="s39" x="1.5" y="1.5" fill="#F7F8F9" stroke="#00B1FF" stroke-miterlimit="10" width="72.5" height="117.8"/>
</g>
<g id="booths">
	<g id="sec31" opacity="0.4">
		<rect id="b7401" x="24" y="344.7" fill="#FFFFFF" stroke="#6E7E84" stroke-miterlimit="10" width="23" height="28.3"/>
		<rect id="bw9" x="37.8" y="373" fill="#FFFFFF" stroke="#6E7E84" stroke-miterlimit="10" width="23" height="37.3"/>
		<rect id="bw7" x="162.2" y="373" fill="#FFFFFF" stroke="#6E7E84" stroke-miterlimit="10" width="23" height="37.3"/>
		<rect id="b7500" x="47" y="344.7" fill="#FFFFFF" stroke="#6E7E84" stroke-miterlimit="10" width="46" height="28.3"/>
		<rect id="b7501" x="111.2" y="344.7" fill="#FFFFFF" stroke="#6E7E84" stroke-miterlimit="10" width="69.2" height="28.3"/>
	</g>
	<g id="sec36" opacity="0.4">
		<rect id="b6702" x="316.2" y="135.9" fill="#FFFFFF" stroke="#6E7E84" stroke-miterlimit="10" width="20.7" height="52.8"/>
		<rect id="b6805" x="336.9" y="135.9" fill="#FFFFFF" stroke="#6E7E84" stroke-miterlimit="10" width="20.7" height="26.4"/>
		<rect id="b6803" x="336.9" y="162.3" fill="#FFFFFF" stroke="#6E7E84" stroke-miterlimit="10" width="20.7" height="26.4"/>
		<rect id="b6802" x="366" y="135.9" fill="#FFFFFF" stroke="#6E7E84" stroke-miterlimit="10" width="20.7" height="52.8"/>
	</g>
	<g id="sec37" opacity="0.4">
		<rect id="b6902" x="417.7" y="135.9" fill="#FFFFFF" stroke="#6E7E84" stroke-miterlimit="10" width="20.7" height="52.8"/>
		<rect id="b7003" x="438.4" y="135.9" fill="#FFFFFF" stroke="#6E7E84" stroke-miterlimit="10" width="20.7" height="52.8"/>
		<rect id="b6905" x="386.7" y="135.9" fill="#FFFFFF" stroke="#6E7E84" stroke-miterlimit="10" width="20.7" height="26.4"/>
		<rect id="b6903" x="386.7" y="162.3" fill="#FFFFFF" stroke="#6E7E84" stroke-miterlimit="10" width="20.7" height="26.4"/>
	</g>
	<g id="sec45" opacity="0.4">
		<rect id="b6716" x="316.2" y="1.5" fill="#FFFFFF" stroke="#6E7E84" stroke-miterlimit="10" width="20.7" height="48.6"/>
		<rect id="b6819" x="336.9" y="1.5" fill="#FFFFFF" stroke="#6E7E84" stroke-miterlimit="10" width="20.7" height="24.3"/>
		<rect id="b6817" x="336.9" y="25.8" fill="#FFFFFF" stroke="#6E7E84" stroke-miterlimit="10" width="20.7" height="24.3"/>
		<rect id="b6816" x="366" y="1.5" fill="#FFFFFF" stroke="#6E7E84" stroke-miterlimit="10" width="20.7" height="48.6"/>
		<rect id="b6917" x="386.7" y="25.8" fill="#FFFFFF" stroke="#6E7E84" stroke-miterlimit="10" width="20.7" height="24.3"/>
	</g>
	<g id="sec43" opacity="0.4">
		<rect id="b6708" x="316.2" y="81.1" fill="#FFFFFF" stroke="#6E7E84" stroke-miterlimit="10" width="20.7" height="44.9"/>
		<rect id="b6712" x="316.2" y="60.8" fill="#FFFFFF" stroke="#6E7E84" stroke-miterlimit="10" width="20.7" height="20.2"/>
		<rect id="b6809" x="336.9" y="81.1" fill="#FFFFFF" stroke="#6E7E84" stroke-miterlimit="10" width="20.7" height="44.9"/>
		<rect id="b6813" x="336.9" y="60.8" fill="#FFFFFF" stroke="#6E7E84" stroke-miterlimit="10" width="20.7" height="20.2"/>
		<rect x="365.9" y="60.4" fill="#FFFFFF" stroke="#6E7E84" stroke-miterlimit="10" width="41.5" height="65.5"/>
	</g>
	<g id="sec42" opacity="0.4">
		<rect id="b6512" x="214.7" y="61.3" fill="#FFFFFF" stroke="#6E7E84" stroke-miterlimit="10" width="41.9" height="19.7"/>
		<rect id="b6616" x="265.9" y="1.5" fill="#FFFFFF" stroke="#6E7E84" stroke-miterlimit="10" width="41.9" height="48.6"/>
		<rect id="b6508" x="215" y="81.1" fill="#FFFFFF" stroke="#6E7E84" stroke-miterlimit="10" width="20.7" height="44.9"/>
		<rect id="b6509" x="235.6" y="81.1" fill="#FFFFFF" stroke="#6E7E84" stroke-miterlimit="10" width="20.7" height="44.9"/>
		<rect id="b6608" x="266.2" y="60.4" fill="#FFFFFF" stroke="#6E7E84" stroke-miterlimit="10" width="41.5" height="65.5"/>
	</g>
	<g id="sec41" opacity="0.4">
		<rect id="b6219" x="130.7" y="1.5" fill="#FFFFFF" stroke="#6E7E84" stroke-miterlimit="10" width="34.2" height="24.2"/>
		<rect id="b6317" x="180.7" y="1.5" fill="#FFFFFF" stroke="#6E7E84" stroke-miterlimit="10" width="22.4" height="35.5"/>
		<rect id="b6516" x="214.7" y="1.5" fill="#FFFFFF" stroke="#6E7E84" stroke-miterlimit="10" width="41.9" height="48.6"/>
		<rect id="b6211" x="131" y="38.4" fill="#FFFFFF" stroke="#6E7E84" stroke-miterlimit="10" width="39" height="72.3"/>
	</g>
	<g id="sec33" opacity="0.4">
		<rect id="b7603" x="180.2" y="298.7" fill="#FFFFFF" stroke="#6E7E84" stroke-miterlimit="10" width="26.2" height="40.8"/>
		<rect id="b7609" x="180.2" y="257.8" fill="#FFFFFF" stroke="#6E7E84" stroke-miterlimit="10" width="26.2" height="40.8"/>
		<rect id="b7613" x="180.2" y="217" fill="#FFFFFF" stroke="#6E7E84" stroke-miterlimit="10" width="26.2" height="40.8"/>
		<rect id="b7511" x="111.3" y="214.2" fill="#FFFFFF" stroke="#6E7E84" stroke-miterlimit="10" width="49.5" height="46.8"/>
		<rect id="b7505" x="111.3" y="278.2" fill="#FFFFFF" stroke="#6E7E84" stroke-miterlimit="10" width="49.5" height="51"/>
	</g>
	<g id="sec32" opacity="0.4">
		<rect id="b7410" x="1.5" y="196.3" fill="#FFFFFF" stroke="#6E7E84" stroke-miterlimit="10" width="20.8" height="65.2"/>
		<rect id="b7408" x="1.5" y="260.8" fill="#FFFFFF" stroke="#6E7E84" stroke-miterlimit="10" width="20.8" height="24.5"/>
		<rect id="b7402" x="1.5" y="304" fill="#FFFFFF" stroke="#6E7E84" stroke-miterlimit="10" width="20.8" height="35.5"/>
		<rect id="b7405" x="43.5" y="262.7" fill="#FFFFFF" stroke="#6E7E84" stroke-miterlimit="10" width="49.5" height="66.6"/>
	</g>
	<g id="sec40" opacity="0.4">
		<rect id="b6119" x="90.2" y="1.5" fill="#FFFFFF" stroke="#6E7E84" stroke-miterlimit="10" width="20.2" height="24.2"/>
		<rect id="b6218" x="110.5" y="1.5" fill="#FFFFFF" stroke="#6E7E84" stroke-miterlimit="10" width="20.2" height="24.2"/>
		<rect id="b6111" x="80.9" y="74.6" fill="#FFFFFF" stroke="#6E7E84" stroke-miterlimit="10" width="39" height="36.1"/>
		<rect id="b6214" x="100.4" y="38.4" fill="#FFFFFF" stroke="#6E7E84" stroke-miterlimit="10" width="19.5" height="36.1"/>
		<rect id="b6115" x="80.9" y="56.6" fill="#FFFFFF" stroke="#6E7E84" stroke-miterlimit="10" width="19.5" height="17.9"/>
		<rect id="b6117" x="80.9" y="38.4" fill="#FFFFFF" stroke="#6E7E84" stroke-miterlimit="10" width="19.5" height="17.9"/>
	</g>
	<g id="sec39" opacity="0.4">
		<rect id="b6122" x="52.2" y="1.5" fill="#FFFFFF" stroke="#6E7E84" stroke-miterlimit="10" width="19.2" height="24.2"/>
		<rect id="b6016" x="1.5" y="27.5" fill="#FFFFFF" stroke="#6E7E84" stroke-miterlimit="10" width="20.8" height="21.8"/>
		<rect id="b6010" x="1.5" y="49.5" fill="#FFFFFF" stroke="#6E7E84" stroke-miterlimit="10" width="20.8" height="60.5"/>
		<rect id="b6011" x="32.8" y="38.4" fill="#FFFFFF" stroke="#6E7E84" stroke-miterlimit="10" width="39" height="72.3"/>
	</g>
	<g id="sec34" opacity="0.4">
		<rect id="b6002" x="1.5" y="126.2" fill="#FFFFFF" stroke="#6E7E84" stroke-miterlimit="10" width="20.8" height="60.5"/>
		<rect id="b6203" x="131" y="126.2" fill="#FFFFFF" stroke="#6E7E84" stroke-miterlimit="10" width="39" height="72.3"/>
		<rect id="b6103" x="80.9" y="126.2" fill="#FFFFFF" stroke="#6E7E84" stroke-miterlimit="10" width="39" height="72.3"/>
		<rect id="b6003" x="32.8" y="126.2" fill="#FFFFFF" stroke="#6E7E84" stroke-miterlimit="10" width="39" height="72.3"/>
	</g>
	<g id="sec35" opacity="0.4">
		<rect id="b6303" x="180.2" y="188" fill="#FFFFFF" stroke="#6E7E84" stroke-miterlimit="10" width="26.2" height="28.6"/>
		<rect id="b6305" x="180.2" y="152.9" fill="#FFFFFF" stroke="#6E7E84" stroke-miterlimit="10" width="26.2" height="35.1"/>
		<rect id="b6502" x="215" y="135.9" fill="#FFFFFF" stroke="#6E7E84" stroke-miterlimit="10" width="20.7" height="52.8"/>
		<rect id="b6503" x="235.6" y="135.9" fill="#FFFFFF" stroke="#6E7E84" stroke-miterlimit="10" width="20.7" height="52.8"/>
		<rect id="b6602" x="266.2" y="135.9" fill="#FFFFFF" stroke="#6E7E84" stroke-miterlimit="10" width="41.5" height="52.8"/>
	</g>
	<g id="sec44" opacity="0.4">
		<rect id="b6916" x="417.7" y="25.8" fill="#FFFFFF" stroke="#6E7E84" stroke-miterlimit="10" width="20.7" height="24.3"/>
		<rect id="b6908" x="417.7" y="60.4" fill="#FFFFFF" stroke="#6E7E84" stroke-miterlimit="10" width="41.5" height="65.5"/>
		<rect id="b7017" x="438.4" y="25.8" fill="#FFFFFF" stroke="#6E7E84" stroke-miterlimit="10" width="20.7" height="24.3"/>
		<rect id="b7016" x="470.8" y="16.5" fill="#FFFFFF" stroke="#6E7E84" stroke-miterlimit="10" width="20.7" height="21.5"/>
		<rect id="b7014" x="470.8" y="38" fill="#FFFFFF" stroke="#6E7E84" stroke-miterlimit="10" width="20.7" height="21.5"/>
		<rect id="b7012" x="470.8" y="59.5" fill="#FFFFFF" stroke="#6E7E84" stroke-miterlimit="10" width="20.7" height="21.5"/>
	</g>
	<g id="sec38" opacity="0.4">
		<rect id="b7010" x="470.8" y="81" fill="#FFFFFF" stroke="#6E7E84" stroke-miterlimit="10" width="20.7" height="21.5"/>
		<rect id="b7004" x="470.8" y="144.5" fill="#FFFFFF" stroke="#6E7E84" stroke-miterlimit="10" width="20.7" height="21.5"/>
		<rect id="b7002" x="470.8" y="165.9" fill="#FFFFFF" stroke="#6E7E84" stroke-miterlimit="10" width="20.7" height="21.5"/>
		<rect id="b7006" x="470.8" y="102.5" fill="#FFFFFF" stroke="#6E7E84" stroke-miterlimit="10" width="20.7" height="42"/>
	</g>
</g>
<g id="extra-locations">
	<g id="floor6">
		<rect id="restroom-bg" x="5.3" y="381.3" fill="#C7E5EF" width="29.2" height="49.7"/>
		<path id="restroom" d="M15.1,397.9c0.2,0,0.4,0,0.6,0c0,7.8-0.3,15.6,0,23.3c0,1.3,0.6,2.5,2.2,2.2c1.5-0.2,1.4-2,1.3-3.2
			c0-4.2,0-8.3,0-12.5c0.2,0,0.3,0,0.5,0c0,3.8,0,7.5-0.1,11.3c0,1.5,0,3,1.3,4c1.3,1,2.4-0.2,2.5-1.5c0.6-7.8-0.2-15.7,0.1-23.6
			c0.2,0,0.3,0,0.5,0c0,2,0,4,0,6.1c0,1.1-0.3,3.6,1.5,3.3c1.7-0.2,1.4-3.3,1.4-4.4c0-2.2,0-4.3,0-6.5c-0.1-3.8-3.4-4.2-6.4-4.3
			c-2.7,0-8-0.5-8.2,3.4c-0.1,2.1-0.1,4.1-0.1,6.2c0,1.6-0.6,4.4,0.9,5.4c1.7,1.2,2-2.3,2-3C15.2,402.2,15.1,400,15.1,397.9
			C15.3,397.9,15.1,398.6,15.1,397.9z M19.7,385.3c-4-0.1-4.1,6.2-0.1,6.4C23.7,391.8,23.8,385.4,19.7,385.3z"/>
		<g id="pin">
			<circle fill="#133E75" stroke="#F9F9F9" stroke-miterlimit="10" cx="136" cy="238.2" r="4.9"/>
			<rect x="133.3" y="236.3" fill="#F9F9F9" width="5.3" height="4"/>
		</g>
		<g id="pin_1_">
			<circle fill="#133E75" stroke="#F9F9F9" stroke-miterlimit="10" cx="100.4" cy="162.3" r="4.9"/>
			<rect x="97.7" y="160.3" fill="#F9F9F9" width="5.3" height="4"/>
		</g>
		<g id="pin_2_">
			<circle fill="#133E75" stroke="#F9F9F9" stroke-miterlimit="10" cx="286.9" cy="92.6" r="4.9"/>
			<rect x="284.3" y="90.7" fill="#F9F9F9" width="5.3" height="4"/>
		</g>
	</g>
</g>
<g id="labels" display="none">
</g>
</svg>
