<?xml version="1.0" encoding="utf-8"?>
<!-- Generator: Adobe Illustrator 18.0.0, SVG Export Plug-In . SVG Version: 6.00 Build 0)  -->
<!DOCTYPE svg PUBLIC "-//W3C//DTD SVG 1.1//EN" "http://www.w3.org/Graphics/SVG/1.1/DTD/svg11.dtd">
<svg version="1.1" xmlns="http://www.w3.org/2000/svg" xmlns:xlink="http://www.w3.org/1999/xlink" x="0px" y="0px" width="640px"
	 height="507.8px" viewBox="0 0 640 507.8" enable-background="new 0 0 640 507.8" xml:space="preserve">
<g id="Layer_1">
</g>
<g id="floors">
	<polygon id="f4b" fill="none" stroke="#00B1FF" stroke-width="3" stroke-miterlimit="10" points="638.5,241.5 366.5,241.5 
		366.5,1.5 226.5,1.5 226.5,150.5 1.5,150.5 1.5,474.5 243.5,474.5 243.5,494.2 255.4,505.7 269.8,491.5 284.1,505.7 298.3,491.5 
		312.5,505.7 326.6,491.5 340.4,505.7 350.5,495.2 350.5,474.5 638.5,474.5 	"/>
</g>
<g id="sections">
	<polygon id="s10" fill="#F7F8F9" stroke="#00B1FF" stroke-miterlimit="10" points="477,241.1 477,307 578.5,307 578.5,474.5 
		638.5,474.5 638.5,241.5 	"/>
	<polygon id="s12" fill="#F7F8F9" stroke="#00B1FF" stroke-miterlimit="10" points="389,314 389,380.7 578.5,380.7 578.5,307 
		477,307 477,336 430,336 430,314 	"/>
	<polygon id="s13" fill="#F7F8F9" stroke="#00B1FF" stroke-miterlimit="10" points="389,241.5 389,314 430,314 430,336 477,336 
		477,241.1 	"/>
	<rect id="s11" x="344.3" y="380.7" fill="#F7F8F9" stroke="#00B1FF" stroke-miterlimit="10" width="234.2" height="93.8"/>
	<polygon id="s16" fill="#F7F8F9" stroke="#00B1FF" stroke-miterlimit="10" points="389,304.3 340.7,304.3 340.7,242.2 253.7,242.2 
		253.7,189 366.5,189 366.5,241.5 389,241.5 	"/>
	<polygon id="s14" fill="#F7F8F9" stroke="#00B1FF" stroke-miterlimit="10" points="253.7,441 344.3,441 344.3,380.7 389,380.7 
		389,304.3 340.7,304.3 340.7,242.2 253.7,242.2 253.7,304.3 	"/>
	<rect id="s17" x="163" y="150.5" fill="#F7F8F9" stroke="#00B1FF" stroke-miterlimit="10" width="90.7" height="153.8"/>
	<rect id="s15" x="163" y="304.3" fill="#F7F8F9" stroke="#00B1FF" stroke-miterlimit="10" width="90.7" height="170.2"/>
	<rect id="s18" x="27.3" y="359.3" fill="#F7F8F9" stroke="#00B1FF" stroke-miterlimit="10" width="135.7" height="115.2"/>
	<polygon id="s19" fill="#F7F8F9" stroke="#00B1FF" stroke-miterlimit="10" points="1.5,310.7 24,310.7 24,302.3 72.3,302.3 
		72.3,359.3 27.3,359.3 27.3,474.5 1.5,474.5 	"/>
	<rect id="s20" x="72.3" y="244.7" fill="#F7F8F9" stroke="#00B1FF" stroke-miterlimit="10" width="90.7" height="114.7"/>
	<polygon id="s21" fill="#F7F8F9" stroke="#00B1FF" stroke-miterlimit="10" points="27.3,150.5 27.3,244.7 72.3,244.7 72.3,302.3 
		24,302.3 24,310.7 1.5,310.7 1.5,150.5 	"/>
	<rect id="s22" x="27.3" y="150.5" fill="#F7F8F9" stroke="#00B1FF" stroke-miterlimit="10" width="135.7" height="94.2"/>
	<polygon id="s23" fill="#F7F8F9" stroke="#00B1FF" stroke-miterlimit="10" points="253.7,144.3 299.5,144.3 299.5,99.7 320,99.7 
		320,189 253.7,189 	"/>
	<rect id="s24" x="320" y="114.5" fill="#F7F8F9" stroke="#00B1FF" stroke-miterlimit="10" width="46.5" height="74.5"/>
	<polygon id="s28" fill="#F7F8F9" stroke="#00B1FF" stroke-miterlimit="10" points="320,57 320,114.5 366.5,114.5 366.5,51.3 
		343.2,51.3 343.2,57 	"/>
	<polygon id="s30" fill="#F7F8F9" stroke="#00B1FF" stroke-miterlimit="10" points="295.5,1.5 295.5,57 320,57 343.2,57 343.2,51.3 
		366.5,51.3 366.5,1.5 	"/>
	<polygon id="s29" fill="#F7F8F9" stroke="#00B1FF" stroke-miterlimit="10" points="295.5,57 273,57 273,65.3 254.5,65.3 
		254.5,50.2 226.5,50.2 226.5,1.5 295.5,1.5 	"/>
	<polygon id="s25" fill="#F7F8F9" stroke="#00B1FF" stroke-miterlimit="10" points="226.5,150.5 253.7,150.5 253.7,144.3 253.7,106 
		273,106 273,81.9 254.8,81.9 254.8,91.2 226.5,91.2 	"/>
	<polygon id="s26_1_" fill="#F7F8F9" stroke="#00B1FF" stroke-miterlimit="10" points="226.5,50.2 226.5,91.2 254.8,91.2 
		254.8,81.9 273,81.9 273,65.3 254.5,65.3 254.5,50.2 	"/>
	<polygon id="s27" fill="#F7F8F9" stroke="#00B1FF" stroke-miterlimit="10" points="273,57 273,106 253.7,106 253.7,144.3 
		299.5,144.3 299.5,99.7 320,99.7 320,57 	"/>
</g>
<g id="booths">
	<g id="sec11" opacity="0.4">
		<rect id="b1814" x="532" y="382.5" fill="#FFFFFF" stroke="#6E7E84" stroke-miterlimit="10" width="41.2" height="80.2"/>
		<rect id="b1614" x="437.2" y="382.5" fill="#FFFFFF" stroke="#6E7E84" stroke-miterlimit="10" width="84.5" height="80.2"/>
		<rect id="b814" x="344.3" y="382.5" fill="#FFFFFF" stroke="#6E7E84" stroke-miterlimit="10" width="84.5" height="80.2"/>
	</g>
	<g id="sec10" opacity="0.4">
		<rect id="b2014" x="586" y="382.5" fill="#FFFFFF" stroke="#6E7E84" stroke-miterlimit="10" width="41.2" height="80.2"/>
		<rect id="b2030" x="586" y="302.3" fill="#FFFFFF" stroke="#6E7E84" stroke-miterlimit="10" width="41.2" height="72.7"/>
		<rect id="b2046" x="586" y="249.3" fill="#FFFFFF" stroke="#6E7E84" stroke-miterlimit="10" width="41.2" height="43.4"/>
		<rect id="b1642" x="479" y="249.3" fill="#FFFFFF" stroke="#6E7E84" stroke-miterlimit="10" width="99.8" height="50.9"/>
	</g>
	<g id="sec13" opacity="0.4">
		<rect id="b1246" x="389" y="249.3" fill="#FFFFFF" stroke="#6E7E84" stroke-miterlimit="10" width="82.2" height="36.2"/>
		<rect id="b1438" x="434.8" y="292.8" fill="#FFFFFF" stroke="#6E7E84" stroke-miterlimit="10" width="36.8" height="37.8"/>
		<rect id="b1240" x="389" y="292.8" fill="#FFFFFF" stroke="#6E7E84" stroke-miterlimit="10" width="36.8" height="21.1"/>
	</g>
	<g id="sec12" opacity="0.4">
		<rect id="b1640" x="479" y="314.6" fill="#FFFFFF" stroke="#6E7E84" stroke-miterlimit="10" width="99.8" height="60"/>
		<rect id="b1430" x="434.8" y="340.2" fill="#FFFFFF" stroke="#6E7E84" stroke-miterlimit="10" width="36.8" height="33.8"/>
		<rect id="b1230" x="389" y="313.9" fill="#FFFFFF" stroke="#6E7E84" stroke-miterlimit="10" width="36.8" height="59.9"/>
	</g>
	<g id="sec16" opacity="0.4">
		<rect id="b842" x="346.8" y="249.3" fill="#FFFFFF" stroke="#6E7E84" stroke-miterlimit="10" width="36.8" height="51.6"/>
		<rect id="b652" x="254.2" y="189" fill="#FFFFFF" stroke="#6E7E84" stroke-miterlimit="10" width="83.9" height="53.4"/>
	</g>
	<g id="sec22" opacity="0.4">
		<rect id="b352" x="120.3" y="158" fill="#FFFFFF" stroke="#6E7E84" stroke-miterlimit="10" width="38.4" height="83.5"/>
		<rect id="b252" x="76.6" y="158" fill="#FFFFFF" stroke="#6E7E84" stroke-miterlimit="10" width="38.4" height="83.5"/>
		<rect id="b152" x="31" y="158" fill="#FFFFFF" stroke="#6E7E84" stroke-miterlimit="10" width="38.4" height="83.5"/>
	</g>
	<g id="sec15" opacity="0.4">
		<rect id="b432" x="165.8" y="308" fill="#FFFFFF" stroke="#6E7E84" stroke-miterlimit="10" width="82.2" height="50"/>
		<rect id="b422" x="165.8" y="365.3" fill="#FFFFFF" stroke="#6E7E84" stroke-miterlimit="10" width="82.2" height="32"/>
		<rect id="b412" x="165.8" y="406.6" fill="#FFFFFF" stroke="#6E7E84" stroke-miterlimit="10" width="82.2" height="57.3"/>
	</g>
	<g id="sec19" opacity="0.4">
		<rect id="b125" x="1.5" y="310.7" fill="#FFFFFF" stroke="#6E7E84" stroke-miterlimit="10" width="21.4" height="78.3"/>
		<rect id="b117" x="1.5" y="389" fill="#FFFFFF" stroke="#6E7E84" stroke-miterlimit="10" width="21.4" height="41.7"/>
		<rect id="b111" x="1.5" y="430.7" fill="#FFFFFF" stroke="#6E7E84" stroke-miterlimit="10" width="21.4" height="44"/>
		<rect id="b132" x="31.2" y="308" fill="#FFFFFF" stroke="#6E7E84" stroke-miterlimit="10" width="38" height="50"/>
	</g>
	<g id="sec20" opacity="0.4">
		<rect id="b232" x="76.6" y="308" fill="#FFFFFF" stroke="#6E7E84" stroke-miterlimit="10" width="82.2" height="50"/>
		<rect id="b242" x="76.6" y="250.1" fill="#FFFFFF" stroke="#6E7E84" stroke-miterlimit="10" width="82.2" height="50"/>
	</g>
	<g id="sec21" opacity="0.4">
		<rect id="b149" x="1.5" y="158" fill="#FFFFFF" stroke="#6E7E84" stroke-miterlimit="10" width="21.4" height="54"/>
		<rect id="b141" x="1.5" y="212" fill="#FFFFFF" stroke="#6E7E84" stroke-miterlimit="10" width="21.4" height="70.3"/>
		<rect id="b135" x="1.5" y="282.3" fill="#FFFFFF" stroke="#6E7E84" stroke-miterlimit="10" width="21.4" height="28.4"/>
		<rect id="b142" x="31.2" y="250.1" fill="#FFFFFF" stroke="#6E7E84" stroke-miterlimit="10" width="38" height="50"/>
	</g>
	<g id="sec18" opacity="0.4">
		<rect id="b222" x="76.6" y="365.3" fill="#FFFFFF" stroke="#6E7E84" stroke-miterlimit="10" width="82.2" height="32"/>
		<rect id="b212" x="76.6" y="406.6" fill="#FFFFFF" stroke="#6E7E84" stroke-miterlimit="10" width="82.2" height="57.3"/>
		<rect id="b122" x="31.2" y="365.3" fill="#FFFFFF" stroke="#6E7E84" stroke-miterlimit="10" width="38" height="32"/>
		<rect id="b112" x="31.2" y="406.6" fill="#FFFFFF" stroke="#6E7E84" stroke-miterlimit="10" width="38" height="57.3"/>
	</g>
	<g id="sec17" opacity="0.4">
		<rect id="b462" x="165.8" y="158" fill="#FFFFFF" stroke="#6E7E84" stroke-miterlimit="10" width="82.2" height="40.6"/>
		<rect id="b442" x="165.8" y="250.2" fill="#FFFFFF" stroke="#6E7E84" stroke-miterlimit="10" width="82.2" height="51.3"/>
		<rect id="b452" x="165.8" y="206.5" fill="#FFFFFF" stroke="#6E7E84" stroke-miterlimit="10" width="34.9" height="35.5"/>
		<rect id="b552" x="213.1" y="206.5" fill="#FFFFFF" stroke="#6E7E84" stroke-miterlimit="10" width="34.9" height="35.5"/>
	</g>
	<g id="sec14" opacity="0.4">
		<rect id="b832" x="346.8" y="309.4" fill="#FFFFFF" stroke="#6E7E84" stroke-miterlimit="10" width="36.8" height="46.4"/>
		<rect id="b642" x="254.2" y="249.3" fill="#FFFFFF" stroke="#6E7E84" stroke-miterlimit="10" width="83.9" height="51.6"/>
		<rect id="b632" x="254.2" y="306.8" fill="#FFFFFF" stroke="#6E7E84" stroke-miterlimit="10" width="83.9" height="51.6"/>
		<rect id="b612" x="254.2" y="365.3" fill="#FFFFFF" stroke="#6E7E84" stroke-miterlimit="10" width="83.9" height="75.9"/>
	</g>
	<g id="sec26" opacity="0.4">
		<rect id="b682" x="254.2" y="65.3" fill="#FFFFFF" stroke="#6E7E84" stroke-miterlimit="10" width="18.7" height="16.7"/>
		<rect id="b679" x="226.5" y="50.2" fill="#FFFFFF" stroke="#6E7E84" stroke-miterlimit="10" width="18.7" height="12.6"/>
		<rect id="b677" x="226.5" y="62.7" fill="#FFFFFF" stroke="#6E7E84" stroke-miterlimit="10" width="18.7" height="12.6"/>
		<rect id="b675" x="226.5" y="75.3" fill="#FFFFFF" stroke="#6E7E84" stroke-miterlimit="10" width="18.7" height="14.3"/>
	</g>
	<g id="sec23" opacity="0.4">
		<rect id="b662" x="254.2" y="144.3" fill="#FFFFFF" stroke="#6E7E84" stroke-miterlimit="10" width="38.5" height="38.8"/>
		<rect id="b862" x="301.3" y="164.3" fill="#FFFFFF" stroke="#6E7E84" stroke-miterlimit="10" width="18.7" height="20.4"/>
		<rect id="b866_1_" x="301.3" y="136.4" fill="#FFFFFF" stroke="#6E7E84" stroke-miterlimit="10" width="18.7" height="27.9"/>
		<rect id="b878_1_" x="301.3" y="120.2" fill="#FFFFFF" stroke="#6E7E84" stroke-miterlimit="10" width="18.7" height="16.2"/>
		<rect id="b770" x="301.3" y="99.7" fill="#FFFFFF" stroke="#6E7E84" stroke-miterlimit="10" width="18.7" height="20.1"/>
	</g>
	<g id="sec24" opacity="0.4">
		<rect id="b870" x="348.1" y="123.5" fill="#FFFFFF" stroke="#6E7E84" stroke-miterlimit="10" width="18.7" height="12.6"/>
		<rect id="b868" x="348.1" y="136.1" fill="#FFFFFF" stroke="#6E7E84" stroke-miterlimit="10" width="18.7" height="12.6"/>
		<rect id="b866" x="348.1" y="148.6" fill="#FFFFFF" stroke="#6E7E84" stroke-miterlimit="10" width="18.7" height="12.6"/>
		<rect id="b863" x="320" y="157.7" fill="#FFFFFF" stroke="#6E7E84" stroke-miterlimit="10" width="19.7" height="27.1"/>
		<rect id="b865" x="320" y="142.4" fill="#FFFFFF" stroke="#6E7E84" stroke-miterlimit="10" width="19.7" height="15.3"/>
		<rect id="b867" x="320" y="128.6" fill="#FFFFFF" stroke="#6E7E84" stroke-miterlimit="10" width="19.7" height="13.8"/>
		<rect id="b869" x="320" y="114.5" fill="#FFFFFF" stroke="#6E7E84" stroke-miterlimit="10" width="19.7" height="14"/>
	</g>
	<g id="sec28" opacity="0.4">
		<rect id="b880" x="348.1" y="51.2" fill="#FFFFFF" stroke="#6E7E84" stroke-miterlimit="10" width="18.7" height="12.6"/>
		<rect id="b878" x="348.1" y="63.7" fill="#FFFFFF" stroke="#6E7E84" stroke-miterlimit="10" width="18.7" height="12.6"/>
		<rect id="b876" x="348.1" y="76.3" fill="#FFFFFF" stroke="#6E7E84" stroke-miterlimit="10" width="18.7" height="12.6"/>
		<rect id="b871" x="320" y="100.7" fill="#FFFFFF" stroke="#6E7E84" stroke-miterlimit="10" width="19.7" height="14"/>
		<rect id="b875" x="320" y="86.6" fill="#FFFFFF" stroke="#6E7E84" stroke-miterlimit="10" width="19.7" height="14"/>
		<rect id="b877" x="320" y="72.6" fill="#FFFFFF" stroke="#6E7E84" stroke-miterlimit="10" width="19.7" height="14"/>
		<rect id="b881" x="320" y="57" fill="#FFFFFF" stroke="#6E7E84" stroke-miterlimit="10" width="19.7" height="15.8"/>
	</g>
	<g id="sec27" opacity="0.4">
		<rect id="b668" x="254.2" y="106.2" fill="#FFFFFF" stroke="#6E7E84" stroke-miterlimit="10" width="38.5" height="38.2"/>
		<rect id="b775" x="273" y="89.8" fill="#FFFFFF" stroke="#6E7E84" stroke-miterlimit="10" width="19.7" height="16.3"/>
		<rect id="b778" x="301.3" y="79.5" fill="#FFFFFF" stroke="#6E7E84" stroke-miterlimit="10" width="18.7" height="20.1"/>
		<rect id="b782" x="301.3" y="57" fill="#FFFFFF" stroke="#6E7E84" stroke-miterlimit="10" width="18.7" height="22.6"/>
		<rect id="b777" x="273" y="76.8" fill="#FFFFFF" stroke="#6E7E84" stroke-miterlimit="10" width="19.7" height="13"/>
		<rect id="b781" x="273" y="57" fill="#FFFFFF" stroke="#6E7E84" stroke-miterlimit="10" width="19.7" height="19.7"/>
	</g>
	<g id="sec29" opacity="0.4">
		<rect id="b684" x="254.2" y="43.8" fill="#FFFFFF" stroke="#6E7E84" stroke-miterlimit="10" width="18.7" height="21.6"/>
		<rect id="b683" x="226.5" y="25" fill="#FFFFFF" stroke="#6E7E84" stroke-miterlimit="10" width="18.7" height="12.6"/>
		<rect id="b681" x="226.5" y="37.6" fill="#FFFFFF" stroke="#6E7E84" stroke-miterlimit="10" width="18.7" height="12.6"/>
		<rect id="b783" x="273" y="43.8" fill="#FFFFFF" stroke="#6E7E84" stroke-miterlimit="10" width="19.7" height="13.2"/>
		<rect id="b685" x="248.8" y="1.7" fill="#FFFFFF" stroke="#6E7E84" stroke-miterlimit="10" width="15.6" height="14.9"/>
		<rect id="b785" x="264.4" y="1.7" fill="#FFFFFF" stroke="#6E7E84" stroke-miterlimit="10" width="15.6" height="14.9"/>
		<rect id="b786" x="279.9" y="1.7" fill="#FFFFFF" stroke="#6E7E84" stroke-miterlimit="10" width="15.6" height="14.9"/>
	</g>
	<g id="sec30" opacity="0.4">
		<rect id="b886" x="348.1" y="26" fill="#FFFFFF" stroke="#6E7E84" stroke-miterlimit="10" width="18.7" height="12.6"/>
		<rect id="b884" x="348.1" y="38.6" fill="#FFFFFF" stroke="#6E7E84" stroke-miterlimit="10" width="18.7" height="12.6"/>
		<rect id="b784" x="301.3" y="43.6" fill="#FFFFFF" stroke="#6E7E84" stroke-miterlimit="10" width="18.7" height="13.4"/>
		<rect id="b883" x="320" y="43.6" fill="#FFFFFF" stroke="#6E7E84" stroke-miterlimit="10" width="19.7" height="13.4"/>
		<rect x="295.5" y="1.7" fill="#FFFFFF" stroke="#6E7E84" stroke-miterlimit="10" width="15.6" height="14.9"/>
		<rect x="311.1" y="1.7" fill="#FFFFFF" stroke="#6E7E84" stroke-miterlimit="10" width="15.6" height="14.9"/>
		<rect x="326.6" y="1.7" fill="#FFFFFF" stroke="#6E7E84" stroke-miterlimit="10" width="15.6" height="14.9"/>
	</g>
	<g id="sec25" opacity="0.4">
		<rect id="b673" x="226.5" y="91.2" fill="#FFFFFF" stroke="#6E7E84" stroke-miterlimit="10" width="18.7" height="12.8"/>
		<rect id="b669" x="226.5" y="104" fill="#FFFFFF" stroke="#6E7E84" stroke-miterlimit="10" width="18.7" height="19.2"/>
		<rect id="b667" x="226.5" y="123.2" fill="#FFFFFF" stroke="#6E7E84" stroke-miterlimit="10" width="18.7" height="19.2"/>
		<rect id="b676_1_" x="254.2" y="81.9" fill="#FFFFFF" stroke="#6E7E84" stroke-miterlimit="10" width="18.7" height="24.1"/>
	</g>
</g>
<g id="extra-locations">
	<g id="floor4b">
		<g id="pin_3_">
			<circle fill="#133E75" stroke="#F9F9F9" stroke-miterlimit="10" cx="528.9" cy="274.8" r="4.2"/>
			<rect x="526.6" y="273.1" fill="#F9F9F9" width="4.5" height="3.4"/>
		</g>
		<g id="pin_4_">
			<circle fill="#133E75" stroke="#F9F9F9" stroke-miterlimit="10" cx="365.1" cy="332.6" r="4.2"/>
			<rect x="362.9" y="330.9" fill="#F9F9F9" width="4.5" height="3.4"/>
		</g>
		<g id="pin_5_">
			<circle fill="#133E75" stroke="#F9F9F9" stroke-miterlimit="10" cx="296.1" cy="332.6" r="4.2"/>
			<rect x="293.9" y="330.9" fill="#F9F9F9" width="4.5" height="3.4"/>
		</g>
		<g id="pin_6_">
			<circle fill="#133E75" stroke="#F9F9F9" stroke-miterlimit="10" cx="204.9" cy="435.2" r="4.2"/>
			<rect x="202.7" y="433.5" fill="#F9F9F9" width="4.5" height="3.4"/>
		</g>
		<g id="pin_7_">
			<circle fill="#133E75" stroke="#F9F9F9" stroke-miterlimit="10" cx="117.7" cy="435.2" r="4.2"/>
			<rect x="115.4" y="433.5" fill="#F9F9F9" width="4.5" height="3.4"/>
		</g>
		<g id="pin_8_">
			<circle fill="#133E75" stroke="#F9F9F9" stroke-miterlimit="10" cx="139.5" cy="199.7" r="4.2"/>
			<rect x="137.3" y="198" fill="#F9F9F9" width="4.5" height="3.4"/>
		</g>
		<g id="pin_9_">
			<circle fill="#133E75" stroke="#F9F9F9" stroke-miterlimit="10" cx="12.2" cy="296.5" r="4.2"/>
			<rect x="10" y="294.8" fill="#F9F9F9" width="4.5" height="3.4"/>
		</g>
	</g>
</g>
<g id="labels" display="none">
</g>
</svg>
